<svg version="1.1" preserveAspectRatio="none" xmlns="http://www.w3.org/2000/svg" width="500" height="500" viewBox="0 0 500 500"><rect width="100%" height="100%" fill="#F7F4F2" fill-opacity="1"/><svg viewBox="195.8517 177.327 335.4836 356.1203" width="313.7030907814017" height="333" x="93.1485px" y="83.5px" xmlns="http://www.w3.org/2000/svg" xmlns:xlink="http://www.w3.org/1999/xlink" preserveAspectRatio="none"><defs></defs><style>.companyName {fill:#161616;fill-opacity:1;}.icon1 {fill:#161616;fill-opacity:1;}.icon2 {fill:#E5B7D2;fill-opacity:1;}.icon3 {fill:#848282;fill-opacity:1;}.icon3-str {stroke:#848282;stroke-opacity:1;}.text {fill:#161616;fill-opacity:1;}</style><g opacity="1" transform="rotate(0 277.7282 513.4473)">
<svg width="171.7307" height="20" x="277.7282" y="513.4473" version="1.1" preserveAspectRatio="none" viewBox="0.68 -29.2 327.28000000000003 38.120000000000005">
  <g transform="matrix(1 0 0 1 0 0)" class="text"><path id="id-6izo4zJp17" d="M23.72-28.40L23.72-25.92L13.60-25.92L13.60 0L10.80 0L10.80-25.92L0.68-25.92L0.68-28.40L23.72-28.40Z M29.84 0.40L29.84 0.40Q28.36 0.40 27.10-0.10Q25.84-0.60 24.90-1.48Q23.96-2.36 23.44-3.54Q22.92-4.72 22.92-6.08L22.92-6.08Q22.92-7.44 23.56-8.60Q24.20-9.76 25.36-10.60Q26.52-11.44 28.12-11.90Q29.72-12.36 31.64-12.36L31.64-12.36Q33.24-12.36 34.88-12.08Q36.52-11.80 37.80-11.28L37.80-11.28L37.80-13.16Q37.80-15.92 36.24-17.54Q34.68-19.16 31.92-19.16L31.92-19.16Q30.32-19.16 28.64-18.52Q26.96-17.88 25.24-16.68L25.24-16.68L24.28-18.48Q28.32-21.20 32.12-21.20L32.12-21.20Q36.04-21.20 38.28-19Q40.52-16.80 40.52-12.92L40.52-12.92L40.52-3.52Q40.52-2.40 41.52-2.40L41.52-2.40L41.52 0Q40.84 0.12 40.48 0.12L40.48 0.12Q39.44 0.12 38.86-0.40Q38.28-0.92 38.24-1.84L38.24-1.84L38.16-3.48Q36.72-1.60 34.54-0.60Q32.36 0.40 29.84 0.40ZM30.48-1.68L30.48-1.68Q32.60-1.68 34.38-2.48Q36.16-3.28 37.08-4.60L37.08-4.60Q37.44-4.96 37.62-5.38Q37.80-5.80 37.80-6.16L37.80-6.16L37.80-9.56Q36.44-10.08 34.98-10.36Q33.52-10.64 32-10.64L32-10.64Q29.12-10.64 27.32-9.44Q25.52-8.24 25.52-6.28L25.52-6.28Q25.52-5.32 25.90-4.48Q26.28-3.64 26.94-3.02Q27.60-2.40 28.52-2.04Q29.44-1.68 30.48-1.68Z M54.92 0.40L54.92 0.40Q52.48 0.40 50.16-0.40Q47.84-1.20 46.16-2.72L46.16-2.72L47.40-4.56Q49.16-3.12 50.98-2.40Q52.80-1.68 54.88-1.68L54.88-1.68Q57.40-1.68 58.90-2.70Q60.40-3.72 60.40-5.60L60.40-5.60Q60.40-6.48 60.00-7.06Q59.60-7.64 58.82-8.08Q58.04-8.52 56.86-8.86Q55.68-9.20 54.12-9.56L54.12-9.56Q52.32-10 51.00-10.44Q49.68-10.88 48.82-11.44Q47.96-12 47.54-12.82Q47.12-13.64 47.12-14.88L47.12-14.88Q47.12-16.44 47.74-17.64Q48.36-18.84 49.42-19.62Q50.48-20.40 51.90-20.80Q53.32-21.20 54.92-21.20L54.92-21.20Q57.32-21.20 59.28-20.42Q61.24-19.64 62.44-18.36L62.44-18.36L61.12-16.76Q59.96-17.96 58.30-18.56Q56.64-19.16 54.84-19.16L54.84-19.16Q53.76-19.16 52.84-18.94Q51.92-18.72 51.22-18.24Q50.52-17.76 50.12-17.02Q49.72-16.28 49.72-15.28L49.72-15.28Q49.72-14.44 50.00-13.92Q50.28-13.40 50.92-13.02Q51.56-12.64 52.54-12.34Q53.52-12.04 54.92-11.72L54.92-11.72Q56.92-11.24 58.44-10.76Q59.96-10.28 60.98-9.64Q62.00-9 62.52-8.08Q63.04-7.16 63.04-5.84L63.04-5.84Q63.04-2.96 60.84-1.28Q58.64 0.40 54.92 0.40Z M78.36-3.20L79.08-1Q78.84-0.88 78.38-0.68Q77.92-0.48 77.32-0.28Q76.72-0.08 75.96 0.08Q75.20 0.24 74.36 0.24L74.36 0.24Q73.48 0.24 72.68 0Q71.88-0.24 71.28-0.74Q70.68-1.24 70.32-2Q69.96-2.76 69.96-3.76L69.96-3.76L69.96-18.68L67.08-18.68L67.08-20.84L69.96-20.84L69.96-27.88L72.68-27.88L72.68-20.84L77.48-20.84L77.48-18.68L72.68-18.68L72.68-4.52Q72.76-3.36 73.50-2.82Q74.24-2.28 75.20-2.28L75.20-2.28Q76.36-2.28 77.24-2.66Q78.12-3.04 78.36-3.20L78.36-3.20Z M92.56 0.40L92.56 0.40Q90.28 0.40 88.38-0.46Q86.48-1.32 85.08-2.82Q83.68-4.32 82.90-6.28Q82.12-8.24 82.12-10.48L82.12-10.48Q82.12-12.68 82.90-14.62Q83.68-16.56 85.06-18.02Q86.44-19.48 88.36-20.34Q90.28-21.20 92.52-21.20L92.52-21.20Q94.80-21.20 96.70-20.34Q98.60-19.48 99.96-18Q101.32-16.52 102.08-14.60Q102.84-12.68 102.84-10.52L102.84-10.52Q102.84-10.20 102.84-9.88Q102.84-9.56 102.80-9.44L102.80-9.44L84.96-9.44Q85.08-7.76 85.74-6.34Q86.40-4.92 87.44-3.88Q88.48-2.84 89.82-2.26Q91.16-1.68 92.68-1.68L92.68-1.68Q93.68-1.68 94.68-1.96Q95.68-2.24 96.52-2.72Q97.36-3.20 98.04-3.90Q98.72-4.60 99.08-5.44L99.08-5.44L101.44-4.80Q100.96-3.64 100.08-2.70Q99.20-1.76 98.04-1.06Q96.88-0.36 95.48 0.02Q94.08 0.40 92.56 0.40ZM84.92-11.52L100.24-11.52Q100.12-13.20 99.46-14.58Q98.80-15.96 97.78-16.96Q96.76-17.96 95.42-18.52Q94.08-19.08 92.56-19.08L92.56-19.08Q91.04-19.08 89.68-18.52Q88.32-17.96 87.30-16.96Q86.28-15.96 85.66-14.56Q85.04-13.16 84.92-11.52L84.92-11.52Z M129.72-3.20L130.44-1Q130.20-0.88 129.74-0.68Q129.28-0.48 128.68-0.28Q128.08-0.08 127.32 0.08Q126.56 0.24 125.72 0.24L125.72 0.24Q124.84 0.24 124.04 0Q123.24-0.24 122.64-0.74Q122.04-1.24 121.68-2Q121.32-2.76 121.32-3.76L121.32-3.76L121.32-18.68L118.44-18.68L118.44-20.84L121.32-20.84L121.32-27.88L124.04-27.88L124.04-20.84L128.84-20.84L128.84-18.68L124.04-18.68L124.04-4.52Q124.12-3.36 124.86-2.82Q125.60-2.28 126.56-2.28L126.56-2.28Q127.72-2.28 128.60-2.66Q129.48-3.04 129.72-3.20L129.72-3.20Z M152.96-12.20L152.96 0L150.24 0L150.24-11.64Q150.24-15.20 149.02-16.96Q147.80-18.72 145.44-18.72L145.44-18.72Q144.28-18.72 143.14-18.26Q142-17.80 141-17Q140-16.20 139.26-15.12Q138.52-14.04 138.16-12.76L138.16-12.76L138.16 0L135.44 0L135.44-29.20L138.16-29.20L138.16-16.12Q139.40-18.48 141.60-19.84Q143.80-21.20 146.36-21.20L146.36-21.20Q148.16-21.20 149.40-20.54Q150.64-19.88 151.44-18.70Q152.24-17.52 152.60-15.86Q152.96-14.20 152.96-12.20L152.96-12.20Z M169.36 0.40L169.36 0.40Q167.08 0.40 165.18-0.46Q163.28-1.32 161.88-2.82Q160.48-4.32 159.70-6.28Q158.92-8.24 158.92-10.48L158.92-10.48Q158.92-12.68 159.70-14.62Q160.48-16.56 161.86-18.02Q163.24-19.48 165.16-20.34Q167.08-21.20 169.32-21.20L169.32-21.20Q171.60-21.20 173.50-20.34Q175.40-19.48 176.76-18Q178.12-16.52 178.88-14.60Q179.64-12.68 179.64-10.52L179.64-10.52Q179.64-10.20 179.64-9.88Q179.64-9.56 179.60-9.44L179.60-9.44L161.76-9.44Q161.88-7.76 162.54-6.34Q163.20-4.92 164.24-3.88Q165.28-2.84 166.62-2.26Q167.96-1.68 169.48-1.68L169.48-1.68Q170.48-1.68 171.48-1.96Q172.48-2.24 173.32-2.72Q174.16-3.20 174.84-3.90Q175.52-4.60 175.88-5.44L175.88-5.44L178.24-4.80Q177.76-3.64 176.88-2.70Q176-1.76 174.84-1.06Q173.68-0.36 172.28 0.02Q170.88 0.40 169.36 0.40ZM161.72-11.52L177.04-11.52Q176.92-13.20 176.26-14.58Q175.60-15.96 174.58-16.96Q173.56-17.96 172.22-18.52Q170.88-19.08 169.36-19.08L169.36-19.08Q167.84-19.08 166.48-18.52Q165.12-17.96 164.10-16.96Q163.08-15.96 162.46-14.56Q161.84-13.16 161.72-11.52L161.72-11.52Z M205.28 0.40L205.28 0.40Q203.16 0.40 201.42-0.50Q199.68-1.40 198.44-2.90Q197.20-4.40 196.52-6.34Q195.84-8.28 195.84-10.40L195.84-10.40Q195.84-12.56 196.60-14.52Q197.36-16.48 198.70-17.96Q200.04-19.44 201.86-20.32Q203.68-21.20 205.76-21.20L205.76-21.20Q206.96-21.20 208.10-20.86Q209.24-20.52 210.24-19.94Q211.24-19.36 212.06-18.54Q212.88-17.72 213.48-16.76L213.48-16.76L213.48-20.84L215.92-20.84L215.92 4.88Q215.92 6 216.92 6.04L216.92 6.04L216.92 8.40Q216.52 8.48 216.14 8.48Q215.76 8.48 215.40 8.48L215.40 8.48Q214.48 8.40 213.84 7.70Q213.20 7 213.20 6.04L213.20 6.04L213.20-4.32Q211.68-2 209.68-0.80Q207.68 0.40 205.28 0.40ZM206.12-2L206.12-2Q207.32-2 208.38-2.40Q209.44-2.80 210.34-3.46Q211.24-4.12 211.96-5.02Q212.68-5.92 213.20-6.92L213.20-6.92L213.20-13.36Q213.04-14.44 212.36-15.42Q211.68-16.40 210.70-17.16Q209.72-17.92 208.56-18.36Q207.40-18.80 206.28-18.80L206.28-18.80Q204.60-18.80 203.18-18.08Q201.76-17.36 200.74-16.18Q199.72-15 199.16-13.48Q198.60-11.96 198.60-10.36L198.60-10.36Q198.60-8.68 199.16-7.16Q199.72-5.64 200.72-4.50Q201.72-3.36 203.10-2.68Q204.48-2 206.12-2Z M230.04 0.40L230.04 0.40Q226.64 0.40 224.98-1.86Q223.32-4.12 223.32-8.60L223.32-8.60L223.32-20.84L226.04-20.84L226.04-9.08Q226.04-2 230.88-2L230.88-2Q232.08-2 233.24-2.40Q234.40-2.80 235.38-3.56Q236.36-4.32 237.14-5.36Q237.92-6.40 238.40-7.72L238.40-7.72L238.40-20.84L241.12-20.84L241.12-3.52Q241.12-2.40 242.08-2.40L242.08-2.40L242.08 0Q241.60 0.08 241.30 0.08Q241.00 0.08 240.88 0.08L240.88 0.08Q239.92 0.04 239.32-0.60Q238.72-1.24 238.72-2.32L238.72-2.32L238.72-4.72Q237.36-2.28 235.02-0.94Q232.68 0.40 230.04 0.40Z M254.12 0.40L254.12 0.40Q252.64 0.40 251.38-0.10Q250.12-0.60 249.18-1.48Q248.24-2.36 247.72-3.54Q247.20-4.72 247.20-6.08L247.20-6.08Q247.20-7.44 247.84-8.60Q248.48-9.76 249.64-10.60Q250.80-11.44 252.40-11.90Q254.00-12.36 255.92-12.36L255.92-12.36Q257.52-12.36 259.16-12.08Q260.80-11.80 262.08-11.28L262.08-11.28L262.08-13.16Q262.08-15.92 260.52-17.54Q258.96-19.16 256.20-19.16L256.20-19.16Q254.60-19.16 252.92-18.52Q251.24-17.88 249.52-16.68L249.52-16.68L248.56-18.48Q252.60-21.20 256.40-21.20L256.40-21.20Q260.32-21.20 262.56-19Q264.80-16.80 264.80-12.92L264.80-12.92L264.80-3.52Q264.80-2.40 265.80-2.40L265.80-2.40L265.80 0Q265.12 0.12 264.76 0.12L264.76 0.12Q263.72 0.12 263.14-0.40Q262.56-0.92 262.52-1.84L262.52-1.84L262.44-3.48Q261.00-1.60 258.82-0.60Q256.64 0.40 254.12 0.40ZM254.76-1.68L254.76-1.68Q256.88-1.68 258.66-2.48Q260.44-3.28 261.36-4.60L261.36-4.60Q261.72-4.96 261.90-5.38Q262.08-5.80 262.08-6.16L262.08-6.16L262.08-9.56Q260.72-10.08 259.26-10.36Q257.80-10.64 256.28-10.64L256.28-10.64Q253.40-10.64 251.60-9.44Q249.80-8.24 249.80-6.28L249.80-6.28Q249.80-5.32 250.18-4.48Q250.56-3.64 251.22-3.02Q251.88-2.40 252.80-2.04Q253.72-1.68 254.76-1.68Z M272.40-3.80L272.40-29.20L275.12-29.20L275.12-4.72Q275.12-3.56 275.76-2.90Q276.40-2.24 277.56-2.24L277.56-2.24Q278-2.24 278.60-2.36Q279.20-2.48 279.72-2.68L279.72-2.68L280.20-0.48Q279.44-0.16 278.34 0.04Q277.24 0.24 276.44 0.24L276.44 0.24Q274.56 0.24 273.48-0.82Q272.40-1.88 272.40-3.80L272.40-3.80Z M287.48 0L284.76 0L284.76-20.84L287.48-20.84L287.48 0ZM287.48-25.20L284.76-25.20L284.76-29.20L287.48-29.20L287.48-25.20Z M304.36-3.20L305.08-1Q304.84-0.88 304.38-0.68Q303.92-0.48 303.32-0.28Q302.72-0.08 301.96 0.08Q301.20 0.24 300.36 0.24L300.36 0.24Q299.48 0.24 298.68 0Q297.88-0.24 297.28-0.74Q296.68-1.24 296.32-2Q295.96-2.76 295.96-3.76L295.96-3.76L295.96-18.68L293.08-18.68L293.08-20.84L295.96-20.84L295.96-27.88L298.68-27.88L298.68-20.84L303.48-20.84L303.48-18.68L298.68-18.68L298.68-4.52Q298.76-3.36 299.50-2.82Q300.24-2.28 301.20-2.28L301.20-2.28Q302.36-2.28 303.24-2.66Q304.12-3.04 304.36-3.20L304.36-3.20Z M311.28 8.80L311.28 6.40Q311.60 6.44 311.90 6.46Q312.20 6.48 312.48 6.48L312.48 6.48Q313.20 6.48 313.62 6.28Q314.04 6.08 314.44 5.40Q314.84 4.72 315.34 3.44Q315.84 2.16 316.76 0L316.76 0L307.68-20.84L310.48-20.84L318.20-2.52L325.36-20.84L327.96-20.84L317.16 6.04Q316.72 7.20 315.70 8.06Q314.68 8.92 312.92 8.92L312.92 8.92Q312.52 8.92 312.16 8.90Q311.80 8.88 311.28 8.80L311.28 8.80Z"/></g>
</svg>
</g><g opacity="1" transform="rotate(0 195.8517 395.4473)">
<svg width="335.4836" height="100" x="195.8517" y="395.4473" version="1.1" preserveAspectRatio="none" viewBox="7.0313 -29.4727 101.56240000000001 30.273500000000002">
  <g transform="matrix(1 0 0 1 0 0)" class="companyName"><path id="id-D6z1nYkh6" d="M8.50-10.92L7.58-10.68Q7.03-10.68 7.03-11.37L7.03-11.37Q7.03-11.88 7.49-12.48Q7.95-13.09 8.05-13.28Q8.14-13.48 8.56-13.89Q8.98-14.30 9.31-14.38Q9.63-14.45 10.63-14.55L10.63-14.55Q13.67-14.84 17.27-14.88L17.27-14.88Q21.17-20.80 23.63-23.67L23.63-23.67Q19.98-23.01 14.67-23.01L14.67-23.01Q7.46-23.01 7.46-26.23L7.46-26.23Q7.46-27.15 8.39-27.83Q9.32-28.52 10.73-28.52Q12.15-28.52 12.15-28.18L12.15-28.18Q12.15-28.01 11.71-28.01Q11.27-28.01 10.89-27.69Q10.51-27.36 10.51-27.07L10.51-27.07Q10.51-26.62 12.42-26.41Q14.34-26.19 18.33-26.19Q22.32-26.19 26.99-26.91L26.99-26.91Q28.54-28.18 29.89-28.83Q31.25-29.47 32.66-29.47Q34.06-29.47 34.49-28.85Q34.92-28.22 34.93-27.91Q34.94-27.60 34.47-27.09Q34.00-26.58 33.16-26.05L33.16-26.05Q31.19-24.84 27.99-24.61L27.99-24.61Q24.57-20.29 20.94-14.84L20.94-14.84Q22.44-14.79 23.75-14.62Q25.06-14.45 25.06-13.59L25.06-13.59Q25.06-13.24 23.95-12.25L23.95-12.25Q23.83-12.11 23.65-11.84L23.65-11.84Q23.34-11.37 23.04-11.37Q22.73-11.37 22.34-11.45L22.34-11.45Q20.82-11.50 20.06-11.50L20.06-11.50L18.79-11.48Q11.91-0.78 11.69-0.36Q11.46 0.06 11.20 0.27Q10.94 0.49 10.55 0.49Q10.16 0.49 9.45 0.36Q8.75 0.23 8.40 0.05Q8.05-0.14 8.05-0.42Q8.05-0.70 8.22-1.23L8.22-1.23Q8.69-2.54 14.79-11.33L14.79-11.33Q10.82-11.13 8.50-10.92L8.50-10.92ZM31.62-28.01L32.38-28.32Q32.07-28.22 31.62-28.01L31.62-28.01Z M31.64-11.88L30.82-10.64Q35.43-15.88 38.67-15.88L38.67-15.88Q39.47-15.88 39.99-15.40Q40.51-14.92 40.51-14.16Q40.51-13.40 39.42-11.61Q38.34-9.82 37.42-8.59L37.42-8.59Q36.93-7.97 36.32-7.97Q35.70-7.97 35.36-8.42Q35.02-8.87 35.02-9.47L35.02-9.47Q35.02-10.82 36.46-12.52L36.46-12.52L36.43-12.56Q35.78-12.50 33.23-10.02Q30.68-7.54 28.90-5.58Q27.11-3.61 25.02-0.80L25.02-0.80Q24.41 0.04 23.99 0.04Q23.57 0.04 22.88-0.22Q22.19-0.49 22.04-0.61Q21.89-0.72 21.89-1.00Q21.89-1.27 22.05-1.63Q22.21-1.99 22.63-2.66Q23.05-3.32 23.90-4.80Q24.75-6.29 26.54-9.30Q28.34-12.30 28.69-12.93L28.69-12.93Q29.43-14.22 29.90-14.80L29.90-14.80Q30.78-15.92 32.87-15.92L32.87-15.92Q33.34-15.92 33.34-15.33L33.34-15.33Q33.34-14.41 31.64-11.88L31.64-11.88Z M51.11-21.45L51.11-21.45Q51.11-20.33 50.08-19.21Q49.04-18.09 47.92-18.09Q46.80-18.09 46.80-19.26Q46.80-20.43 47.78-21.49Q48.77-22.56 49.96-22.56L49.96-22.56Q50.49-22.56 50.80-22.27Q51.11-21.97 51.11-21.45ZM47.95-4.39L47.95-4.39Q47.95-3.81 47.83-3.55L47.83-3.55Q46.88-1.60 44.79-0.40Q42.70 0.80 41.15 0.80Q39.61 0.80 38.50-0.23Q37.38-1.27 37.38-2.34Q37.38-3.42 38.46-5.47Q39.53-7.52 40.61-9.26Q41.68-11.00 41.68-11.14Q41.68-11.29 41.28-11.72Q40.88-12.15 40.88-12.35Q40.88-12.56 41.69-13.43Q42.50-14.30 43.66-15.15Q44.82-16.00 45.44-16.00Q46.05-16.00 46.54-15.45Q47.03-14.90 47.03-14.45Q47.03-14.00 42.38-6.00L42.38-6.00Q42.32-5.88 42.06-5.48Q41.80-5.08 41.65-4.81Q41.50-4.55 41.31-4.18L41.31-4.18Q40.92-3.40 40.92-2.87L40.92-2.87Q40.92-2.21 41.82-2.21Q42.71-2.21 43.68-2.82Q44.65-3.44 45.35-4.18L45.35-4.18Q47.19-6.15 47.44-6.15L47.44-6.15Q47.95-6.15 47.95-4.39Z M49.47-7.79L49.47-7.79L49.38-7.79Q48.98-7.75 48.60-8.01Q48.22-8.26 48.22-8.63Q48.22-9.00 48.43-9.30Q48.63-9.59 48.70-9.90Q48.77-10.21 49.40-10.80Q50.04-11.39 50.48-11.44Q50.92-11.48 52.03-11.56Q53.14-11.64 54.26-11.73Q55.37-11.82 56.41-11.82Q57.44-11.82 57.61-11.71Q57.77-11.60 57.98-11.18Q58.18-10.76 58.36-10.57Q58.54-10.37 58.54-9.93Q58.54-9.49 58.18-9.17Q57.83-8.85 57.39-8.78Q56.95-8.71 56.41-8.64Q55.86-8.57 55.19-8.51Q54.51-8.44 53.91-8.36Q53.30-8.28 52.52-8.13L52.52-8.13Q51.02-7.83 49.47-7.79Z M69.26-19.10L69.26-19.10Q69.26-17.83 73.69-17.83L73.69-17.83Q74.79-17.83 75.31-18.07L75.31-18.07Q76.70-18.73 78.72-18.73Q80.74-18.73 80.74-17.70L80.74-17.70Q80.74-17.29 80.40-16.49Q80.06-15.70 79.89-15.53Q79.73-15.35 78.63-15.05Q77.54-14.75 77.22-14.72Q76.89-14.69 76.79-14.67Q76.68-14.65 76.53-14.63Q76.39-14.61 75.88-14.52Q75.37-14.43 75.14-14.53L75.14-14.53Q68.67-11.35 66.25-7.54L66.25-7.54Q65.16-5.82 65.16-4.59L65.16-4.59Q65.16-2.66 67.83-2.66L67.83-2.66Q69.92-2.66 73.14-4.30Q76.37-5.94 78.86-8.27Q81.35-10.61 81.35-12.32L81.35-12.32Q81.35-12.87 82.17-12.87L82.17-12.87Q84.06-12.87 84.06-10.63L84.06-10.63Q84.06-9.57 83.14-8.12Q82.23-6.66 80.59-5.17Q78.95-3.67 76.93-2.38Q74.92-1.09 72.47-0.27Q70.02 0.55 68.32 0.55Q66.62 0.55 65.58 0.22Q64.53-0.10 63.61-0.74L63.61-0.74Q61.62-2.13 61.62-4.94L61.62-4.94Q61.62-6.46 62.44-8.04Q63.26-9.61 64.59-10.90L64.59-10.90Q67.03-13.32 69.82-14.92L69.82-14.92Q65.80-15.84 65.80-19.06L65.80-19.06Q65.80-22.70 71.39-25.70L71.39-25.70Q74.49-27.36 78.13-28.09L78.13-28.09Q79.84-28.44 81.00-28.44L81.00-28.44Q83.34-28.44 84.53-28.07L84.53-28.07Q85.25-27.71 85.70-27.08Q86.15-26.45 86.15-25.99Q86.15-25.53 86.04-25.16Q85.92-24.79 85.64-24.57L85.64-24.57Q85.25-24.28 84.77-24.12Q84.28-23.96 84.20-23.93L84.20-23.93Q82.68-23.28 81.58-23.28L81.58-23.28Q79.63-23.28 79.45-23.79L79.45-23.79Q79.49-24.30 79.88-24.96L79.88-24.96Q78.03-24.88 76.04-24.21Q74.04-23.54 72.59-22.63Q71.13-21.72 70.20-20.74Q69.26-19.77 69.26-19.10Z M107.79-29.28Q108.16-29.28 108.38-29.04Q108.59-28.81 108.59-28.56Q108.59-28.32 108.21-27.67Q107.83-27.01 106.46-24.81Q105.10-22.62 104.34-21.37L104.34-21.37Q99.90-14.16 97.38-9.18Q94.86-4.20 94.86-3.16L94.86-3.16L94.86-3.01Q94.86-2.21 95.45-2.21Q96.04-2.21 96.87-2.75Q97.70-3.30 98.32-3.93Q98.95-4.55 99.58-5.22Q100.21-5.90 100.35-6.02Q100.49-6.13 100.70-6.13L100.70-6.13Q101.04-6.13 101.13-5.71Q101.23-5.29 101.23-4.54Q101.23-3.79 101.11-3.55L101.11-3.55Q100.55-2.46 98.62-0.89Q96.70 0.68 94.98 0.68L94.98 0.68Q92.05 0.68 92.05-1.80L92.05-1.80Q92.05-3.34 93.22-5.84L93.22-5.84Q91.64-3.79 90-2.34L90-2.34Q86.95 0.31 84.71 0.31L84.71 0.31Q83.46 0.31 82.86-0.57Q82.27-1.45 82.27-3.10Q82.27-4.75 83.55-7.05Q84.84-9.36 86.77-11.20Q88.69-13.05 91.04-14.29Q93.38-15.53 95.35-15.53L95.35-15.53Q95.98-15.53 96.82-14.77L96.82-14.77Q97.38-15.66 98.91-18.36L98.91-18.36Q103.69-26.43 105.23-28.20L105.23-28.20Q106.05-29.28 107.79-29.28L107.79-29.28ZM95.63-12.93L95.63-12.93Q92.81-12.30 90.39-10.31Q87.97-8.32 86.76-6.14Q85.55-3.96 85.55-3.32Q85.55-2.68 85.82-2.68L85.82-2.68Q86.99-2.68 91.62-7.91L91.62-7.91Q93.93-10.49 95.63-12.93Z"/></g>
</svg>
</g><g opacity="1" transform="rotate(0 262.9484 177.327)">
<svg width="201.2902" height="188.1203" x="262.9484" y="177.327" version="1.1" preserveAspectRatio="none" viewBox="0.8731125593185425 0.8165594339370728 3.602573871612549 3.3668675422668457">
  <g transform="matrix(1 0 0 1 0 0)" class="icon1"><title>chef icon</title><g><path d="M3.66787,2.39066a.06794.06794,0,0,0-.08016.01274.00647.00647,0,0,0,.00817.01.0613.0613,0,0,1,.0645.00328c.016.01168.01721.029.02207.047a.01031.01031,0,0,0,.0204-.003C3.70076,2.42938,3.6979,2.40694,3.66787,2.39066Z"></path><path d="M2.61527,1.56774a.7617.7617,0,0,1-.04606-.07208.15215.15215,0,0,0-.07661-.0451.60051.60051,0,0,0-.245-.0225.31888.31888,0,0,0-.20171.08468L2.01855,1.541l-.00136.00093-.003.00345a.4173.4173,0,0,1-.05075.04455c-.04866.03524-.09066.10267-.15323.0337a.0062.0062,0,0,0-.00961.00784c.06.08232.12345.04823.18035-.00939l0,.00088a.081.081,0,0,0,.00827.02267.00717.00717,0,0,0,.01312-.00576.02536.02536,0,0,1-.00013-.01892L2.0062,1.614l.00257.00534c.00285.00488.01247.00542.01249-.0019a.09254.09254,0,0,1,.00536-.03161.14382.14382,0,0,0,.00759-.02451c.02173-.02664.0417-.0521.05915-.06939a.24568.24568,0,0,1,.13815-.041.64385.64385,0,0,1,.15267.00141.3807.3807,0,0,1,.13765.05l.02023.01448.00319.00466c.00755.00693.01111.00786.012.01884a.07009.07009,0,0,1-.00135.038c-.00461.00956.01035.01494.01512.00586l.00472-.0125.00392.00671a.13045.13045,0,0,1,.00478.073c-.00063.00851.01215.01239.015.0037a.15572.15572,0,0,0,.00877-.07368A.00831.00831,0,0,0,2.61527,1.56774Z"></path><path d="M2.03767,1.31723c-.00784.00819-.03171.01987-.03573.03023a.042.042,0,0,0-.00274.01626.08894.08894,0,0,1-.00166.01987.02389.02389,0,0,0-.01647.00194.11886.11886,0,0,1-.04065.01694.06721.06721,0,0,1-.05829-.01516c-.00672-.0071-.01836.002-.01193.00972a.09276.09276,0,0,0,.05765.02908.17277.17277,0,0,0,.03829.00349l.0133-.00457-.01153.01657a.19467.19467,0,0,0-.03216.04814c-.0187.05185-.09427.0254-.12766.01856-.02376-.00488-.07972.00276-.08347.03523-.00317.02746.04127.0467.05862.05669.00626.00359.01526-.00389.00941-.01a.213.213,0,0,0-.0207-.021c-.04387-.03563.06475-.02888.07677-.02738A.09852.09852,0,0,0,1.944,1.51054c.02746-.03114.0583-.0385.07553-.08137a.13106.13106,0,0,0,.00647-.057c-.00459-.02236.00954-.02842.02256-.04467C2.05374,1.3209,2.04358,1.311,2.03767,1.31723Z"></path><path d="M2.28811,1.1241a.16548.16548,0,0,1-.06991.01247.21523.21523,0,0,0-.0814.02383L2.1259,1.166c-.04129.00665-.08337.04528-.12722.01983a.00683.00683,0,0,0-.008.011.0931.0931,0,0,0,.08781.01737c-.00521.0182-.00071.03887-.00778.057-.003.00757.00684.01179.01171.00638a.11991.11991,0,0,0,.0248-.04239c.01069-.02955.041-.041.0669-.05373a.50457.50457,0,0,1,.08537-.02007.09576.09576,0,0,0,.03585-.02551A.007.007,0,0,0,2.28811,1.1241Z"></path><path d="M2.38633,1.01449a.12015.12015,0,0,0-.09708-.071c-.01331-.00114-.0228.01786-.01.02567a.31335.31335,0,0,1,.06018.04109.05057.05057,0,0,1-.00872.08377c-.00825.00457-.00277.01782.006.01358A.07849.07849,0,0,0,2.38633,1.01449Z"></path><path d="M2.62108,1.19061a.56789.56789,0,0,1-.08167-.04689.10738.10738,0,0,0,.02454-.08165c-.00039-.0074-.01225-.007-.01283.00021a.09979.09979,0,0,1-.012.04173c-.00729.01231-.02533.00589-.03267.01938l0,.00011a.20647.20647,0,0,0-.10452-.03218.00629.00629,0,0,0-.00144.01249c.07384.01069.10277.07542.161.11128.02251.01388.048.01262.06812.03241a.22811.22811,0,0,1,.03219.10842c.00205.012.02171.01259.022-.00035C2.685,1.30186,2.67944,1.21549,2.62108,1.19061Z"></path><path d="M2.64242,1.39366a.27157.27157,0,0,0-.09-.1348c-.00744-.00459-.01765.00457-.01106.01171a.4365.4365,0,0,1,.08186.26535c.00035.01684.02309.015.029.00326A.17414.17414,0,0,0,2.64242,1.39366Z"></path><path d="M2.00912.98394a.26073.26073,0,0,0-.10475.07252c-.0317.04148-.02755.09524-.05472.13689-.03328.051-.07376.095-.10577.14757a.29956.29956,0,0,0-.032.07209c-.00981.03374-.00055.07338-.017.10485-.00391.00744.00869.0143.01295.007a.06928.06928,0,0,0,.01242-.03136.33725.33725,0,0,1,.04409-.11369,1.61292,1.61292,0,0,1,.09491-.13848.33176.33176,0,0,0,.04654-.11893.23836.23836,0,0,1,.11074-.12188A.00908.00908,0,0,0,2.00912.98394Z"></path><path d="M2.49211.89437c-.063-.05254-.1117-.09792-.19618-.06857a.29612.29612,0,0,0-.10526.04678.425.425,0,0,1-.13647.098c-.00925.00346-.003.01651.00606.01375a.54917.54917,0,0,0,.104-.0395c.02536-.01367.04548-.03594.0709-.0503a.37187.37187,0,0,1,.104-.05087c.04545-.01023.105.04337.14225.06544A.00909.00909,0,0,0,2.49211.89437Z"></path><path d="M2.71567,1.113a.18749.18749,0,0,0-.03619-.0957.7599.7599,0,0,0-.074-.06608c-.00593-.005-.01253.00458-.007.00963a.26279.26279,0,0,1,.07568.12568c.01123.05494.04633.11038.01052.1613l-.00122.00412c-.0058.00142-.00651.01083.00017.01083l.00522-.00322.00678-.0014A.12847.12847,0,0,0,2.734,1.20525C2.74555,1.17231,2.7231,1.14359,2.71567,1.113Z"></path><path d="M2.21618,1.54009A.10964.10964,0,0,0,2.15743,1.535l-.01268.00446a.02044.02044,0,0,0-.014-.00428.06083.06083,0,0,0-.038.01884c-.0118.01279-.01242.03067-.02865.04047-.008.00481-.00311.0174.006.01359.0139-.00581.02137-.018.03386-.02536a.14043.14043,0,0,1,.02348-.01075l.009-.00114a.08475.08475,0,0,0,.02377.00033.14688.14688,0,0,0,.05848-.01471A.00864.00864,0,0,0,2.21618,1.54009Z"></path><path d="M2.49884,1.56438c-.00756-.00316-.00932-.012-.015-.017a.07286.07286,0,0,0-.0165-.01273.034.034,0,0,0-.01647-.00335.03661.03661,0,0,0-.03517-.00378c-.01962.00607-.04284-.00275-.05892.01339a.00789.00789,0,0,0,.00812.01329l.01789.00733a.06263.06263,0,0,0,.02856.00364l.021-.00321.00719-.0013.00912.00023a.05.05,0,0,1,.01777.005c.0107.00351.01938.011.03116.01014C2.50385,1.57548,2.50408,1.56658,2.49884,1.56438Z"></path><path d="M2.36252,1.75864c-.02713-.00273-.06322.01808-.0852.00595a.089.089,0,0,0-.02769-.01185c-.01546-.00306-.03429.00954-.04514-.008-.00471-.00766-.01491.00039-.01253.00768.01337.04116.04241.01358.07073.03242.00857.0057.027.01516.03748.00892A.12325.12325,0,0,1,2.36275,1.773C2.37111,1.77278,2.37052,1.75945,2.36252,1.75864Z"></path><path d="M2.0651,1.95724a1.43518,1.43518,0,0,0-.05314-.2433c-.00287-.00771-.01393-.0025-.0115.00507a.32453.32453,0,0,1,.01024.09145c-.00954-.00473-.02252-.00622-.0273-.015A.18952.18952,0,0,1,1.975,1.74273c-.00407-.02087-.00638-.04224-.00873-.06337a.00623.00623,0,0,0-.01231.0002.442.442,0,0,0,.003.05621c.00169.02015-.00363.04055-.00116.06035.00419.03382.03327.031.0564.04417l.00049.00675a.16294.16294,0,0,0,.01746.04693c.01.022.00873.04592.0198.06763C2.05388,1.96932,2.06681,1.96642,2.0651,1.95724Z"></path><path d="M2.2167,2.08223a.053.053,0,0,1-.0142.00059.02071.02071,0,0,1-.01336-.00258l-.0036-.001-.00084-.002-.00322-.0115a.00911.00911,0,0,0-.008-.00777L2.172,2.058l-.00989-.00493c-.01034,0-.00443-.00634-.00313-.01275a.02009.02009,0,0,0-.01154-.02208.0627.0627,0,0,1-.02993-.02375.01914.01914,0,0,0-.02-.00921.00614.00614,0,0,0,.0002.01212l.00358.01574a.04374.04374,0,0,0,.00872.0172.03825.03825,0,0,0,.02543.01525l-.00017.00731.00321.01079a.05813.05813,0,0,0,.02694.0147h.0001l.00418.00791.008.00312.00238-.00032L2.181,2.08872a.03149.03149,0,0,0,.04461.008C2.23372,2.09076,2.22538,2.079,2.2167,2.08223Z"></path><path d="M2.29457,2.08824a.016.016,0,0,0-.01914.00055L2.272,2.09193,2.27174,2.092,2.272,2.09183l-.00032.00026L2.27,2.09274l-.00914.00556a.00866.00866,0,0,0,.00039.01343l.00034.00038.00562.00407.00917.00253.00968-.00015A.02037.02037,0,0,0,2.3,2.10664.0156.0156,0,0,0,2.29457,2.08824Z"></path><path d="M2.35766,2.08834a.012.012,0,0,0-.02044-.00217l-.00232.0037-.00082.00192-.00064.00073L2.333,2.09274,2.32757,2.095l-.00307.0017-.00069.00049-.00073-.00007a.008.008,0,0,0-.00862.00685.00781.00781,0,0,0,.00686.00861l.00926.00224a.033.033,0,0,0,.01409-.00126A.01926.01926,0,0,0,2.35766,2.08834Z"></path><path d="M2.38864,2.08567a.01183.01183,0,0,0-.01532-.00594.01422.01422,0,0,0-.00887.01l-.00092.00454a.0081.0081,0,0,0,.00026.01466.01566.01566,0,0,0,.01463-.00174l.00439-.00463.00184-.00315A.01122.01122,0,0,0,2.38864,2.08567Z"></path><path d="M2.42482,2.07231A.00921.00921,0,0,0,2.417,2.06476l-.00933.00563a.03287.03287,0,0,0-.00105.01165l.00014.01c-.00249.00827.00928.01619.01413.0077A.03564.03564,0,0,0,2.42482,2.07231Z"></path><path d="M2.45286,2.05819a.00977.00977,0,0,0-.0179.0004l-.0021.00958-.00044.00463a.00815.00815,0,0,0,.00453.01543A.02168.02168,0,0,0,2.45286,2.05819Z"></path><path d="M2.5034,1.99313c-.00295.00609-.00683.01415-.014.01587A.04244.04244,0,0,0,2.473,2.02c-.0059.00454-.011.00635-.01283.01425-.00126.00531.00082.0119-.00311.01642-.00548.00627.0029.016.01007.01246a.03644.03644,0,0,0,.0149-.01185l.003-.00647L2.48756,2.043l.00537-.00364a.05836.05836,0,0,0,.01416-.01892.17365.17365,0,0,0,.01245-.02105C2.52407,1.98909,2.50822,1.98323,2.5034,1.99313Z"></path><path d="M2.6828,1.61674a.00682.00682,0,0,0-.0135.002c.00308.03051-.02144.06635-.03124.09486-.00749.02176.0045.0412-.00819.06389-.01137.02039-.03547.02677-.05548.0374a.00669.00669,0,0,0-.00969.00295l-.00282.00705-.00436.01092-.00419.01044c-.00582.015-.00089.032-.00714.04751a.50674.50674,0,0,0-.01884.053c-.00228.00818-.00056.01914-.006.02621-.0029.00381.00059.011.00578.0095.00579-.00166.01219-.00389.014-.01078a.44044.44044,0,0,1,.0192-.05989A.091.091,0,0,0,2.575,1.86629a.10935.10935,0,0,1-.001-.01869c.00586-.01149.01571-.01269.02948-.01772a.0676.0676,0,0,0,.0408-.04459c.01077-.0259.01258-.05075.02257-.07682A.16538.16538,0,0,0,2.6828,1.61674Z"></path><path d="M2.57156,1.71727a.11278.11278,0,0,0-.00752.03289.11977.11977,0,0,0,.00106.04121.0057.0057,0,0,0,.01125-.00018c.00313-.023.00265-.04627.008-.069A.00711.00711,0,0,0,2.57156,1.71727Z"></path><path d="M2.153,1.82035a.27861.27861,0,0,1-.0247.019.044.044,0,0,1-.02238.0069.00735.00735,0,0,0-.00531.01369.06182.06182,0,0,0,.0719-.02536C2.17845,1.82226,2.16239,1.814,2.153,1.82035Z"></path><path d="M2.19568,1.82355a.05569.05569,0,0,0-.02463.01684l-.011.01275c-.00791-.00149-.00922.00943-.00312.01261a.02055.02055,0,0,0,.02185-.006c.00892-.008.02214-.01158.02758-.02287A.00994.00994,0,0,0,2.19568,1.82355Z"></path><path d="M2.216,1.83452l-.00634.00937L2.20521,1.85l-.00064.00065h0l-.00778.00469a.00761.00761,0,0,0,.00423.00961c.01253.00673.031-.01221.03156-.024A.00924.00924,0,0,0,2.216,1.83452Z"></path><circle cx="2.25181" cy="1.841" r="0.01057" transform="translate(-0.20109 0.27793) rotate(-6.76153)"></circle><path d="M2.28962,1.82616l-.011.00448c-.01175.00574-.00341.02454.00815.01854a.02185.02185,0,0,0,.01246-.011A.009.009,0,0,0,2.28962,1.82616Z"></path><circle cx="2.32359" cy="1.83469" r="0.01465" transform="translate(-0.52009 2.65851) rotate(-54.45089)"></circle><g><path d="M2.443,1.86545l-.00049-.0008Z"></path><path d="M2.46124,1.84181A.037.037,0,0,0,2.441,1.8307a.01019.01019,0,0,0-.01157.00342l-.00165.00552a.0135.0135,0,0,0-.00965-.00719c-.00532-.001-.0149-.00072-.01816-.00481a.009.009,0,0,0-.01586.00568c-.00733-.01188-.023-.00881-.03328-.017a.00674.00674,0,0,0-.00913.0097l.01154.01309L2.359,1.845a.02193.02193,0,0,0,.01274.00778.01288.01288,0,0,0,.01433-.01332.03878.03878,0,0,0,.03243.01768.01236.01236,0,0,0,.01058-.0109L2.429,1.84514l.00265.00275.007.00842.00078.00111.00093.00212.00025-.00009.00246.006a.01257.01257,0,0,0,.0209.00147A.01911.01911,0,0,0,2.46124,1.84181Z"></path></g><path d="M2.38349,1.92351c-.02369.00547-.04389.01842-.06815.02185A.20273.20273,0,0,1,2.208,1.92679c-.009-.00372-.01378.00963-.00537.01384A.24672.24672,0,0,0,2.316,1.984a.08266.08266,0,0,0,.07576-.04687C2.39539,1.93137,2.39135,1.9217,2.38349,1.92351Z"></path><path d="M2.23657,1.61408C2.228,1.60844,2.21684,1.609,2.211,1.59993c-.00746-.01154-.02809-.01223-.03982-.01352a.08883.08883,0,0,0-.07492.03054c-.00594.00613.00176.01642.0086.01056a.111.111,0,0,1,.02524-.0168l0,.002a.05193.05193,0,0,0,.00177.01385.0217.0217,0,0,0,.01164.01084.04632.04632,0,0,0,.03374-.00126c.00951-.00322.02-.01428.01363-.02436l.01931.01091c.00543.00345.01343.00252.01941.00433C2.23722,1.62937,2.244,1.619,2.23657,1.61408Z"></path><path d="M2.49166,1.61056A.06429.06429,0,0,0,2.44248,1.578a.10018.10018,0,0,0-.04587-.00049c-.01418.00641-.02.02-.03514.025a.0087.0087,0,0,0,.00251.0165.06345.06345,0,0,0,.03646-.0148l.00085.0075a.02543.02543,0,0,0,.01662.01242.025.025,0,0,0,.0226-.00127l.00228-.00219.00024,0a.01907.01907,0,0,0,.01268-.02152l.00725.00507a.13342.13342,0,0,1,.01271.01734.00914.00914,0,0,0,.01441-.00042l.00057-.00086Z"></path><path d="M2.38139,1.8802a.22128.22128,0,0,1-.09183.00718.33932.33932,0,0,1-.09032-.004.00611.00611,0,0,0-.0044.01139.2006.2006,0,0,0,.19305-.004C2.394,1.887,2.3877,1.87748,2.38139,1.8802Z"></path><path d="M2.45141,1.78214A.06749.06749,0,0,1,2.43683,1.767l-.01627-.01882c-.00475-.00559-.01526.00018-.01137.007.00853.01484.01856.0369.03666.04131C2.45408,1.79848,2.4572,1.78657,2.45141,1.78214Z"></path><path d="M2.6301,1.6826l-.00026-.01015-.00011-.00431a.00886.00886,0,0,0-.00235-.01492c-.01643-.0067-.01923.0169-.019.02728a.05615.05615,0,0,0,.00419.01915c.00228.006.005.01278-.00343.016l-.00891.00643c-.00466.00558.00364.013.00906.00857.00513-.00416.01287-.00352.01836-.00809a.02081.02081,0,0,0,.004-.02118Z"></path><path d="M2.288,2.29919a.2181.2181,0,0,0-.07789-.1018A.81133.81133,0,0,1,2.127,2.13576a.45554.45554,0,0,1-.03554-.08908.0065.0065,0,0,0-.01231.00356c.0061.05593.00442.09317.04874.13238.04546.0402.11124.066.1423.12172C2.27491,2.31282,2.29092,2.31009,2.288,2.29919Z"></path><path d="M2.53879,2.04013a.009.009,0,0,0-.01712-.00192.3528.3528,0,0,1-.14023.16017.15382.15382,0,0,0-.07293.12219c.00122.01029.01644.00777.01575-.00231-.00265-.03761.03915-.06643.06528-.08553a.79219.79219,0,0,0,.08082-.068C2.50866,2.12843,2.54849,2.099,2.53879,2.04013Z"></path><path d="M2.15575,2.28637c-.01967-.02415-.0448-.04269-.06325-.06769a.06841.06841,0,0,1-.01776-.04877.25816.25816,0,0,0-.00428-.04157c-.00092-.00777-.01363-.00777-.01385.00022-.00063.02367-.02035.06873.00284.08758.01479.012.02428.02887.03874.04124.0157.01343.03179.02619.04733.03983C2.15206,2.30293,2.161,2.29281,2.15575,2.28637Z"></path><path d="M2.56253,2.09538c-.00336-.00776-.014-.00251-.01168.00513a.1285.1285,0,0,1-.02019.10259l-.00132.00364a.23312.23312,0,0,1-.0395.03387c-.0286.02078-.05607.04406-.08545.06361-.00807.00534.00141.01648.00938.01151.033-.02067.06522-.0423.09844-.06272a.09374.09374,0,0,0,.03333-.035l.00265-.00218A.12592.12592,0,0,0,2.57745,2.16.11434.11434,0,0,0,2.56253,2.09538Z"></path><path d="M2.0066,2.1529a.96183.96183,0,0,0-.2214.0946.43.43,0,0,1-.14013.05478c-.03432.00886-.06787.02766-.10184.03906a.04848.04848,0,0,0-.03275.03619.54357.54357,0,0,0-.00875.12046.55218.55218,0,0,0,.0303.09765c.016.04514.02176.09315.0406.13712.005.01172.02149.00383.01773-.00782-.02216-.06857-.032-.14085-.05579-.20952a.291.291,0,0,1,.00164-.11681c.00133-.03224.06213-.04121.08554-.05211a.72453.72453,0,0,1,.10453-.03028.41987.41987,0,0,0,.09113-.04586c.06408-.03646.1312-.067.19509-.104A.00734.00734,0,0,0,2.0066,2.1529Z"></path><path d="M1.452,2.43519c-.044.06157-.10521.10546-.14648.17082-.0433.06855-.08594.1377-.13116.20508-.04509.0672-.07988.14019-.13064.2034a.87464.87464,0,0,0-.12879.15063c-.00387.00793.00679.014.013.00944a.87819.87819,0,0,0,.13128-.12666,2.17642,2.17642,0,0,0,.13543-.19747c.04659-.06632.09415-.13343.13438-.20384.04063-.07114.09462-.132.13557-.20229C1.46947,2.43583,1.45791,2.42687,1.452,2.43519Z"></path><path d="M1.30072,3.47876c-.04405-.01128-.05949-.04193-.09248-.06747a.39471.39471,0,0,0-.096-.06.21287.21287,0,0,1-.10579-.07216A.2972.2972,0,0,0,.93161,3.2a.0077.0077,0,0,0-.009.01246.42756.42756,0,0,1,.07253.11368.54147.54147,0,0,1-.05737.10078.37081.37081,0,0,0-.0371.0942c-.01054.045-.00945.09042-.0157.13606A.29265.29265,0,0,0,.87449,3.768c.00279.01.02017.0122.0201-.00033a.48175.48175,0,0,1,.02719-.10629c.01164-.04942.00565-.1.01892-.14974A.65084.65084,0,0,1,.994,3.39092a.32913.32913,0,0,0,.021-.04175.25813.25813,0,0,0,.06675.03771.39466.39466,0,0,1,.12219.07437.11486.11486,0,0,0,.09175.03786C1.30672,3.49923,1.31321,3.482,1.30072,3.47876Z"></path><path d="M1.676,2.88181c-.00058-.01322-.023-.01283-.02321.00037a.41448.41448,0,0,1-.02911.12755A.89354.89354,0,0,0,1.61884,2.88a.0083.0083,0,0,0-.01642.00243,1.60077,1.60077,0,0,1-.01761.17109.2036.2036,0,0,0,.00741.06078.21075.21075,0,0,1-.00541.10939l.00079.00954a.10954.10954,0,0,1-.02682.04137c-.01932.01816-.04155.033-.06153.0504-.04634.04038-.07081.10545-.11692.145a.00664.00664,0,0,0,.00837.01029c.05917-.03957.10306-.10188.15993-.14455a.1426.1426,0,0,0,.06793-.11319.16046.16046,0,0,0,.01721-.12149A.44589.44589,0,0,0,1.676,2.88181Z"></path><path d="M1.406,3.392c-.02285-.00525-.04634-.00791-.069-.01387a.23543.23543,0,0,1-.06966-.04364c-.04348-.03192-.082-.07043-.12511-.10308-.00793-.006-.01688.0064-.009.01244.05314.041.093.09681.14367.1408a.1613.1613,0,0,0,.12953.03473C1.42331,3.41792,1.42015,3.39523,1.406,3.392Z"></path><path d="M1.78184,3.79454a.87779.87779,0,0,0-.059-.13261.69571.69571,0,0,1-.04116-.15874c.00038-.02338.0007-.04678.00161-.07025a.43518.43518,0,0,0-.02289-.21419c-.00385-.00739-.01736-.00472-.01494.00432a.90494.90494,0,0,1-.00884.245,1.053,1.053,0,0,1-.02057.26865c-.00966.03457-.02247.06828-.0324.10279a.89538.89538,0,0,0-.02872.11283,1.11955,1.11955,0,0,0,.00172.22339c.00067.01045.01845.01017.01837-.00029a.57114.57114,0,0,1,.01325-.254c.019-.03759.028-.08221.04386-.12143a.67111.67111,0,0,0,.03339-.10749c.00382-.01733.00651-.0347.00867-.0521l.00055.00182a1.502,1.502,0,0,0,.09192.159C1.77118,3.81123,1.78494,3.8045,1.78184,3.79454Z"></path><path d="M2.00925,2.75744a1.7951,1.7951,0,0,0-.04854-.1876.50424.50424,0,0,1-.00423-.094c-.001-.03351-.01625-.06567-.018-.09988-.00046-.00843-.0143-.0081-.01472.00024a.2936.2936,0,0,0,.00214.06817.61543.61543,0,0,1-.008.09473.52987.52987,0,0,0,.03851.17824.61822.61822,0,0,1,.0242.1957c.00217.07893-.00055.15762.00063.23644.00205.13856-.03085.27082-.04091.40892a.31436.31436,0,0,0,.01113.07953.43428.43428,0,0,1-.00481.12531,1.173,1.173,0,0,0,.00264.20694.01343.01343,0,0,0,.02652-.00041,1.65453,1.65453,0,0,1,.01691-.20124.4916.4916,0,0,0-.00383-.19379.76106.76106,0,0,1,.01017-.2091.91053.91053,0,0,0,.00936-.2008A1.646,1.646,0,0,1,2.015,2.95535,1.504,1.504,0,0,0,2.00925,2.75744Z"></path><path d="M2.138,3.43265c-.00067-.01722-.02439-.03457-.03946-.02034a.01408.01408,0,0,0,.00164.02151l.00579.00356.00112.00047-.00091.0091c-.00042.00492-.00086.01027-.00641.01169-.00378.001-.01453.00217-.01705-.00193a.04966.04966,0,0,1,.00052-.04186c.0055-.00857-.007-.01782-.01286-.00933-.01665.024-.02932.06309.00317.0806a.0508.0508,0,0,0,.04964-.0057A.05611.05611,0,0,0,2.138,3.43265Z"></path><path d="M2.50757,3.42283a.01222.01222,0,0,0-.01024.01378.024.024,0,0,1-.00059.01674l-.00036.00088-.00742-.00105c-.00662-.00235-.00747-.004-.00733-.0108.00017-.00793.00812-.01387.0156-.01739.01028-.00482.00319-.021-.00712-.01614L2.479,3.41111l-.014.007a.03631.03631,0,0,0-.013.02316.03821.03821,0,0,0,.02736.0427.03388.03388,0,0,0,.046-.01772C2.53025,3.45162,2.53233,3.41835,2.50757,3.42283Z"></path><path d="M2.11328,3.978a.0098.0098,0,0,0-.01746-.00428c-.00432.005-.00872.01452-.01573.01634-.00423.00109-.01168.00166-.01306-.00153a.01324.01324,0,0,1,.00137-.01561l.00417-.00235.0021-.00069.01008-.004.00392-.01007c-.00367-.01831-.02789-.01337-.03911-.006a.04156.04156,0,0,0-.01231.05185.039.039,0,0,0,.04529.02074A.04151.04151,0,0,0,2.11328,3.978Z"></path><path d="M2.51076,3.98605a.01142.01142,0,0,0-.021.00049L2.48814,3.992l-.00487.00163a.0273.0273,0,0,1-.0165-.00565l-.00282-.00371-.0006-.00305.00049-.00653c.00078-.00535.00529-.00431.00971-.00453l.017-.00167c.01088-.00108.00989-.017-.0003-.01853-.02017-.003-.04019-.00921-.05137.01358a.03861.03861,0,0,0,.00883.04782.05086.05086,0,0,0,.04151.01188A.02735.02735,0,0,0,2.51076,3.98605Z"></path><path d="M2.10645,2.86353a.02871.02871,0,0,0-.04535.00889c-.0049.01035.007.01854.0161.01539.0061-.00212.00973-.00514.01342,0a.01914.01914,0,0,1,.00006.01994l-.00648.0081c-.0039.00358-.0056.00166-.0103.00029L2.06933,2.915l-.00212-.0005L2.06359,2.9051c-.00378-.00916-.01708-.003-.01392.00613l.00573.01541a.04337.04337,0,0,0,.01823.01385c.01864.00932.03563-.01016.04295-.0249A.04525.04525,0,0,0,2.10645,2.86353Z"></path><path d="M2.55643,2.88669a.00912.00912,0,0,0-.018.00027L2.53361,2.902c-.0018.00459.00106.00447-.00509.00257a.02884.02884,0,0,1-.01473-.01242l-.00355-.01336c.0025-.00431.01418-.00139.02026-.00008l-.00007-.00056a.01061.01061,0,0,0,.00983-.01729.03722.03722,0,0,0-.05113-.00509.04146.04146,0,0,0-.00412.051.05044.05044,0,0,0,.04566.02885C2.55495,2.93359,2.55982,2.90648,2.55643,2.88669Z"></path><path d="M2.6252,2.39862a.01083.01083,0,0,0-.01429.01143l-.00039.00211-.00192.00448-.00622.00725c-.00562.00293-.01253-.00278-.01577-.00686a.01827.01827,0,0,1-.00026-.01924A.0324.0324,0,0,1,2.6091,2.387c.01013-.00017.00769-.01573-.00229-.01557a.08572.08572,0,0,0-.02517.00131.03315.03315,0,0,0-.01911.0152.04415.04415,0,0,0,.01024.05394.03683.03683,0,0,0,.049.00128C2.63174,2.43326,2.6438,2.4063,2.6252,2.39862Z"></path><path d="M2.07365,2.38389a.0105.0105,0,0,0-.01646.00047c-.009.01156.00163.04675-.02344.03589-.00663-.00289-.00679-.012-.00519-.018.00246-.00936.01208-.00881.01643-.01618.00345-.00583-.00209-.01606-.00944-.01168l-.00123.00075a.03108.03108,0,0,0-.03072.02516.038.038,0,0,0,.0177.04285.037.037,0,0,0,.04608-.00454A.04886.04886,0,0,0,2.07365,2.38389Z"></path><path d="M2.23255,2.32033c-.04678-.00481-.09387-.00649-.14075-.01067-.04849-.00433-.09832.02636-.14613.028a.00808.00808,0,0,0-.00176.01543.262.262,0,0,0,.11944-.008.759.759,0,0,1,.167-.00558C2.24265,2.33992,2.24516,2.32162,2.23255,2.32033Z"></path><path d="M1.44345,3.98033c-.07758-.03349-.1493-.08067-.22763-.112-.04451-.01782-.09018-.032-.13431-.0511-.04082-.01766-.08477-.024-.12522-.04093-.00715-.003-.01106.0065-.006.01109a.69508.69508,0,0,0,.23345.11592c.04492.01536.08516.03959.12889.05754.03871.0159.08441.02168.1246.03563A.00865.00865,0,0,0,1.44345,3.98033Z"></path><path d="M1.60485,3.72445a.76889.76889,0,0,0-.19125-.148.36739.36739,0,0,0-.08826-.03775.02983.02983,0,0,0,.01132-.03552.01409.01409,0,0,0-.01854-.00721.37011.37011,0,0,0-.06393.0445.21393.21393,0,0,1-.1085.05094c-.00939.001-.0069.01447.00209.01417a.31421.31421,0,0,0,.12308-.03605.79852.79852,0,0,1,.32055.16918A.00989.00989,0,0,0,1.60485,3.72445Z"></path><path d="M2.73041,2.30623a.00822.00822,0,0,0-.01633-.00185c-.009.03652-.01293.07426-.022.11108a.62747.62747,0,0,0-.02365.11066c-.006.09446.00412.18917-.00345.28349a1.645,1.645,0,0,1-.03933.29,1.71448,1.71448,0,0,0-.04264.27791.01153.01153,0,0,0,.02291.00261c.02164-.08951.02043-.185.03865-.27585.01815-.0905.0424-.17858.05541-.27021a1.69335,1.69335,0,0,0,.01394-.27217.71543.71543,0,0,1,.01013-.126C2.73079,2.39217,2.72685,2.34956,2.73041,2.30623Z"></path><path d="M2.61893,3.83352c-.00226-.05344-.00844-.10585-.006-.15945a.39219.39219,0,0,0-.00581-.10819.00821.00821,0,0,0-.01624.00237.53136.53136,0,0,1-.0094.12257c-.00564.04743-.00137.09568-.00225.14335a.95439.95439,0,0,0,.0111.24356c.00339.01343.02647.01572.02635-.00043C2.616,3.99575,2.62238,3.91533,2.61893,3.83352Z"></path><path d="M3.1547,2.40524c-.01573-.02109-.021-.05179-.04917-.06058a.42426.42426,0,0,0-.05912-.00714.63755.63755,0,0,1-.11151-.03025C2.88,2.28833,2.826,2.268,2.771,2.24966a.554.554,0,0,1-.08619-.04332.38521.38521,0,0,1-.08433-.04707c-.00681-.007-.01831.00191-.01191.00971a.535.535,0,0,0,.29606.15949,1.29836,1.29836,0,0,0,.17463.03642c.02107.00286.04009.00057.05226.02a.204.204,0,0,0,.03154.03265C3.15049,2.42439,3.16024,2.41267,3.1547,2.40524Z"></path><path d="M3.09405,2.71635a1.3739,1.3739,0,0,0-.07828.12959,1.35764,1.35764,0,0,0-.03133.16921,1.44908,1.44908,0,0,0-.01987.147.4213.4213,0,0,1-.02129.10139.28125.28125,0,0,0-.01923.08044c-.00109.01233.01748.01772.02152.00531.01769-.0541.03972-.10642.059-.15985a1.55036,1.55036,0,0,0,.02924-.1551c.01447-.05758.004-.11832.01868-.17411.01249-.04739.0434-.09051.06-.1367A.00987.00987,0,0,0,3.09405,2.71635Z"></path><path d="M2.98007,3.98285a1.21111,1.21111,0,0,1-.01413-.171c-.00835-.11961-.00793-.24059-.0187-.36022A.00771.00771,0,0,0,2.932,3.4519a1.63408,1.63408,0,0,0-.01029.345c.00687.05706,0,.11426.0086.1713.00825.055.014.114.02763.16782a.0132.0132,0,0,0,.0261-.00385A.8293.8293,0,0,0,2.98007,3.98285Z"></path><path d="M3.72423,2.60333c-.01705-.01573-.02971-.03635-.04529-.05354-.008-.00883-.01794-.01713-.02628-.02556l-.01179-.03352c-.00262-.00771-.01465-.00383-.01347.00388.0027.01778-.00389.02692.00407.04263a.33567.33567,0,0,0,.04.05471.23732.23732,0,0,0,.02846.03472c.00777.00667.00305.041.00388.05781-.00318.013-.01251.02446-.01574.03767a.15031.15031,0,0,0-.00655.04427c.00051.01165.01791.01241.02166.00243A.18667.18667,0,0,0,3.71333,2.725c.00128-.01028.00395-.02031.00578-.03054l.00169-.00282C3.72931,2.66772,3.74672,2.62408,3.72423,2.60333Z"></path><path d="M3.62276,2.73854l-.02532.01877c.00139-.01232.00174-.02485.00214-.03823a.60379.60379,0,0,1,.02528-.12883.06712.06712,0,0,0-.00162-.04308.39625.39625,0,0,1-.03088-.09725.00734.00734,0,0,0-.01452.00214c.00265.02131-.00275.04076.00116.0618a.04615.04615,0,0,0,.00769.01629.11125.11125,0,0,1,.00369.084c-.0171.05664-.01614.11541-.02775.17284a.13076.13076,0,0,0-.035.07605.75672.75672,0,0,1-.02419.13785c-.01292.0373-.04478.06779-.06148.10387a.3366.3366,0,0,1-.04244.06623.76671.76671,0,0,0-.09072-.34524,1.17887,1.17887,0,0,1-.06466-.15422c-.02356-.06687-.0339-.13935-.06381-.20373a.0083.0083,0,0,0-.01518.0067c.02072.05338.02534.11353.04137.1687.0168.05793.037.11388.05623.17079a2.33618,2.33618,0,0,1,.10959.37627l.00459.00786c-.02872.03307-.05975.06495-.08369.09732-.02557.03454-.05855.06184-.08472.096a.18938.18938,0,0,0-.02853.0758c-.003.01247.01589.01559.02068.00511a.96749.96749,0,0,1,.13672-.16766.73282.73282,0,0,0,.12707-.17825c.02335-.07046.06885-.13249.09485-.20156.01441-.03826-.00108-.07374.02252-.112.015-.02426.044-.03946.05309-.06554A.00782.00782,0,0,0,3.62276,2.73854Z"></path><path d="M3.1619,3.87446a.18747.18747,0,0,0-.04957-.063.394.394,0,0,1-.0715-.11989c-.02654-.0606-.0152-.13625-.04106-.19638a.46314.46314,0,0,0,.05069-.03359c.02872-.01666.05087-.03946.08109-.05434a.00909.00909,0,0,0-.00732-.01662.54648.54648,0,0,0-.10578.05829c-.00983.00693-.01907.01479-.02937.02107.0041-.00292.00157-.00416-.00267-.01116-.01284-.02123-.0198-.04722-.03159-.06937a.00681.00681,0,0,0-.01246.0055.36011.36011,0,0,1,.02678.08278.02851.02851,0,0,0,.00962.01811.60126.60126,0,0,0,.01765.19475.4495.4495,0,0,0,.05316.102c.02542.03851.06564.05789.095.09237A.01027.01027,0,0,0,3.1619,3.87446Z"></path><path d="M3.73522,2.93081a1.05971,1.05971,0,0,0-.085.2187,2.47769,2.47769,0,0,1-.115.2668c-.04648.08046-.082.17-.13291.24718-.0267.04045-.05356.08148-.08307.11994-.01942.02532-.07612.09273-.11395.09174a.01022.01022,0,0,0-.00231.0203c.0638.01283.13214-.07978.16409-.12417a3.2731,3.2731,0,0,0,.16149-.28872,2.65229,2.65229,0,0,0,.1288-.27226c.0384-.08755.06129-.18064.09723-.269A.01113.01113,0,0,0,3.73522,2.93081Z"></path><path d="M3.89831,2.69469a.20537.20537,0,0,0-.01083.03557c-.00465.01644-.02041.0262-.03092.03843-.01244.01449-.02508.02837-.03606.044a.23585.23585,0,0,1-.03431.04889.008.008,0,0,0,.01014.01244.74041.74041,0,0,0,.07951-.07827.126.126,0,0,0,.02757-.04c.00651-.01662.00415-.038.00939-.05546A.00778.00778,0,0,0,3.89831,2.69469Z"></path><path d="M4.00094,2.40731a.27732.27732,0,0,0-.049.1085.41628.41628,0,0,0-.00988.0637.18984.18984,0,0,1-.03594.09557c-.00522.00833.00708.01742.01243.009a.25276.25276,0,0,0,.04921-.10164c.00287-.02725.009-.05383.014-.08073a.38609.38609,0,0,1,.03576-.08538A.00956.00956,0,0,0,4.00094,2.40731Z"></path><path d="M3.81906,2.62592c-.0044-.01788-.00335-.04406-.02-.05633a.45205.45205,0,0,1-.06649-.04714.596.596,0,0,0-.05444-.04259c-.00507-.0042-.0126.00366-.008.00844.01531.01582.02961.03275.04529.0481.01288.01259.01884.02888.0361.03729.04948.02416.03738.08121.05521.12559a.01.01,0,0,0,.019-.00547A.649.649,0,0,0,3.81906,2.62592Z"></path><path d="M3.978,2.391c-.09407.00515-.1014.14593-.13014.21218-.00347.008.00849.01219.01238.0048.01681-.03192.03092-.066.04566-.09878.01969-.04386.02961-.08.078-.09772C3.996,2.40707,3.98931,2.39043,3.978,2.391Z"></path><path d="M4.21163,2.40634l-.00376-.00018-.00454-.0066c-.07468-.04513-.14543.07538-.2.10506-.00837.00458-.00268.01813.00608.01376.02821-.0141.05083-.03649.07755-.05312.02862-.0178.0548-.05329.09027-.05039l-.01435.01048a.44409.44409,0,0,0-.056.04462c-.01937.02149-.03144.04866-.04877.07191a.84833.84833,0,0,1-.06378.071c-.00515.00551.00408.0141.00957.009a.78187.78187,0,0,0,.09764-.09837.29533.29533,0,0,1,.11329-.09608A.01117.01117,0,0,0,4.21163,2.40634Z"></path><path d="M4.23166,2.36116a4.53752,4.53752,0,0,1-.73027.00518.00734.00734,0,0,0-.00174.01457,2.34278,2.34278,0,0,0,.35722.02321,2.517,2.517,0,0,0,.37821-.01892A.01215.01215,0,0,0,4.23166,2.36116Z"></path><path d="M4.46734,2.27541a.38878.38878,0,0,0-.16782-.0336.01066.01066,0,0,0-.00242.02118c.02858.00487.05718.00932.08585.01373.00412.00064.07429.00935.043.01573a.96836.96836,0,0,1-.13589.01306c-.13475.00783-.26846.00587-.40333.00673-.12121.00076-.24229-.00553-.36325-.01239-.05357-.003-.10643-.01208-.15984-.01637q-.0319.00881-.00884-.00016A.11272.11272,0,0,1,3.394,2.27141c.02419-.0059.04776-.01354.07154-.02087.00836-.00256.00416-.017-.00428-.0148-.035.00932-.12434.00356-.14558.0385a.016.016,0,0,0,.00054.01912c.02759.03306.08769.0272.12668.03224.072.00928.14472.00911.21708.014.15239.01018.30626.00751.45894.00692.07294-.00028.14577-.00509.21828-.01249a.43526.43526,0,0,0,.12409-.02314C4.47484,2.305,4.48254,2.28477,4.46734,2.27541Z"></path><path d="M4.1807,2.22871c-.15887-.01319-.323-.00268-.48233-.00031-.00771.00012-.00937.012-.00139.01216.16033.00259.324.01739.48405.00859C4.19281,2.24851,4.19216,2.22966,4.1807,2.22871Z"></path></g></g>
</svg>
</g></svg></svg>